<svg version="1.1" id="Layer_1" xmlns="http://www.w3.org/2000/svg" xmlns:xlink="http://www.w3.org/1999/xlink" x="0px" y="0px"
	 width="100%" viewBox="0 0 1024 784" enable-background="new 0 0 1024 784" xml:space="preserve">
<path fill="#000000" opacity="1.000000" stroke="none" 
	d="
M853.005310,402.996033 
	C852.140015,454.160309 840.535400,501.985687 815.719543,546.443848 
	C799.049622,576.308411 776.746521,601.557007 752.536438,625.348816 
	C709.970093,667.179932 661.965454,701.711731 610.637878,731.896423 
	C580.278259,749.750305 548.827820,765.306213 516.285767,778.724548 
	C513.483093,779.880127 511.169067,780.034119 508.244202,778.866577 
	C458.336884,758.945557 412.069153,732.332397 367.383514,702.749390 
	C329.212952,677.479431 293.103882,649.699341 261.211945,616.692078 
	C225.444809,579.674011 198.476624,537.275696 183.655243,487.766083 
	C175.609100,460.888550 170.962601,433.276978 170.911896,405.121307 
	C170.743210,311.461151 170.773178,217.800674 170.688492,124.140335 
	C170.685150,120.442856 170.520370,117.432869 175.686111,116.842194 
	C207.942535,113.153847 240.011536,108.268784 271.869781,101.904045 
	C320.401276,92.208252 368.497681,80.874222 415.557220,65.428314 
	C445.945557,55.454239 475.830292,44.125534 505.118317,31.282669 
	C510.112701,29.092607 514.120117,28.991974 519.196167,31.282850 
	C581.255127,59.290970 646.074951,78.697723 712.591248,92.723480 
	C752.844666,101.211395 793.333374,108.275101 834.231934,112.873718 
	C838.530945,113.357094 842.792419,114.403145 847.094910,114.566414 
	C851.941528,114.750313 853.161743,116.995590 853.145142,121.517525 
	C853.010864,158.181152 853.077942,194.845474 853.068237,231.509583 
	C853.053101,288.505402 853.025757,345.501221 853.005310,402.996033 
M774.484436,546.994934 
	C782.546143,534.920227 789.772095,522.384705 795.653564,509.086517 
	C812.366638,471.297913 819.205383,431.396576 819.489563,390.446716 
	C820.038940,311.302551 819.730957,232.152649 819.959473,153.005646 
	C819.974304,147.859009 818.106018,145.909683 813.297852,145.312744 
	C775.927979,140.673157 739.069153,133.179230 702.360779,124.950905 
	C639.382690,110.834137 577.752686,92.291130 517.931702,67.946663 
	C514.288269,66.463951 511.082977,66.423149 507.412842,67.875305 
	C473.798950,81.175163 439.579376,92.736084 404.983917,103.198570 
	C369.927124,113.800575 334.500519,123.056229 298.755737,130.957291 
	C269.185455,137.493530 239.349350,142.815750 209.458008,147.719055 
	C204.566589,148.521423 203.199326,150.612579 203.263824,155.288467 
	C203.695923,186.604965 203.170700,217.922302 203.791763,249.246979 
	C204.676682,293.879395 204.782166,338.527344 205.203842,383.168762 
	C205.342178,397.814484 205.168045,412.423859 207.048492,427.049438 
	C210.614807,454.786957 217.142456,481.631531 228.461334,507.259918 
	C244.808105,544.272522 269.346802,575.371094 297.971893,603.489380 
	C325.758698,630.784180 356.576782,654.258911 388.895538,675.920898 
	C427.029785,701.480896 466.819305,724.006287 508.494171,743.238159 
	C511.309631,744.537415 513.673584,744.500488 516.511108,743.200500 
	C575.385925,716.228821 630.518250,683.057007 681.146790,642.678101 
	C716.010498,614.872437 748.604248,584.664673 774.484436,546.994934 
z"/>
<path fill="#000000" opacity="1.000000" stroke="none" 
	d="
M593.089478,645.133911 
	C573.120361,658.220520 552.464294,669.402527 531.823364,680.610657 
	C531.091309,681.008179 530.237183,681.262451 529.631958,681.799683 
	C520.762207,689.673767 512.953674,687.363525 504.151581,680.731445 
	C489.395844,669.613708 473.813904,659.594177 458.607971,649.071533 
	C452.172363,644.617981 445.236115,641.066711 438.209656,637.987732 
	C438.419495,635.212097 440.414276,634.757629 441.967590,633.966675 
	C445.697937,632.066956 449.146393,629.786072 452.388397,627.129456 
	C458.198456,622.368347 460.799591,616.429504 460.779877,608.816345 
	C460.628235,550.319214 460.658905,491.821533 460.647766,433.324036 
	C460.638458,384.492950 460.657104,335.661835 460.623322,286.830780 
	C460.621887,284.742615 461.225708,282.506317 459.242615,279.787109 
	C436.407806,344.864014 413.772186,409.373199 391.202911,473.693329 
	C387.425659,473.400116 387.533051,470.883728 386.949829,469.208527 
	C375.782990,437.135132 364.696167,405.033875 353.608398,372.932983 
	C343.225952,342.873962 332.863220,312.808167 322.483032,282.748413 
	C322.110168,281.668762 321.748169,280.545105 320.623901,279.966888 
	C318.536896,280.774109 319.231232,282.522217 319.203400,283.845795 
	C317.808655,350.150146 316.631287,416.461151 317.294495,482.780334 
	C317.567719,510.101440 323.900574,536.199829 336.150116,560.751343 
	C336.937286,562.329041 338.164764,563.820862 337.778961,565.858337 
	C335.467987,566.924561 333.946350,565.242859 332.333496,564.278259 
	C317.831299,555.604858 307.321198,542.961853 297.893372,529.297424 
	C291.839081,520.522400 285.999390,511.599670 279.999786,502.786469 
	C277.660095,499.349487 276.830963,495.680878 276.836212,491.501343 
	C276.949646,401.172668 276.919067,310.843719 277.082825,220.515152 
	C277.095581,213.491302 275.108307,207.563904 271.222443,201.864517 
	C266.862091,195.469254 262.961609,188.760498 258.997986,182.407608 
	C260.498474,180.315582 262.106903,180.681778 263.538879,180.681839 
	C286.036652,180.682907 308.536194,180.872406 331.030792,180.618347 
	C335.894012,180.563431 337.780853,182.478943 338.968170,186.755997 
	C348.320496,220.446365 358.773590,253.806213 369.223999,287.168427 
	C376.590149,310.684509 384.208252,334.114288 392.202759,357.422699 
	C392.512726,358.326508 393.049622,359.152496 393.603271,360.259674 
	C396.663147,358.814178 396.807434,355.860321 397.616119,353.539825 
	C409.838409,318.466431 420.960022,283.036072 431.694580,247.484283 
	C437.854889,227.081787 443.920105,206.649338 449.812103,186.168213 
	C450.972137,182.135788 452.803986,180.606750 457.122833,180.655106 
	C474.769653,180.852692 492.420746,180.664627 510.070282,180.646545 
	C511.367798,180.645203 512.758484,180.384674 514.100037,181.537109 
	C514.002380,182.025864 514.094421,182.854797 513.727417,183.211975 
	C505.294128,191.419052 503.345062,201.864868 503.337250,212.994705 
	C503.304413,259.659119 503.244354,306.323547 503.248291,352.987946 
	C503.255615,439.983795 503.338379,526.979675 503.291351,613.975525 
	C503.283783,627.974976 507.121185,640.515564 515.623596,651.690857 
	C517.816711,654.573425 519.870483,655.435669 523.205200,653.642944 
	C553.308838,637.459656 583.298218,621.106079 609.326477,598.561340 
	C612.170044,596.098389 615.479858,594.053406 617.400330,590.636047 
	C615.957275,588.220459 613.763855,589.049255 611.913696,588.930847 
	C593.103394,587.727417 574.288269,589.174316 555.475830,588.864319 
	C548.981567,588.757324 542.489441,588.424561 535.995972,588.414001 
	C532.760315,588.408752 531.508118,587.076172 531.611633,583.918762 
	C532.119690,568.430298 531.051758,552.954468 531.401611,537.450500 
	C531.792358,520.135498 531.177063,502.799591 531.132568,485.472473 
	C531.058655,456.663940 531.021179,427.854980 531.096619,399.046539 
	C531.185547,365.079132 531.951599,331.103638 531.419250,297.147400 
	C530.923035,265.492798 531.965820,233.845428 531.139832,202.195328 
	C530.949768,194.913086 529.673401,188.133423 524.974609,181.021545 
	C544.836670,181.021545 563.331970,181.021545 581.870544,181.021545 
	C582.615845,182.394836 581.550720,183.141678 580.733276,183.921234 
	C574.683899,189.690704 572.425537,196.983368 572.125366,205.093338 
	C570.361816,252.740479 571.559204,300.404755 571.370972,348.060120 
	C571.130005,409.056152 571.342651,470.053986 571.361084,531.051025 
	C571.362366,535.381897 571.380127,539.712708 571.378418,544.043579 
	C571.377441,546.626282 571.921143,548.789429 575.144531,548.742065 
	C604.757263,548.306519 634.494568,550.755371 663.889465,545.188416 
	C676.884827,542.727295 689.257385,538.279968 701.206177,532.637451 
	C702.522156,532.015930 703.706421,530.867981 705.652039,531.648560 
	C707.010498,534.394287 704.988586,536.594788 703.879395,538.810242 
	C697.318909,551.913147 688.051819,563.103699 678.074036,573.625610 
	C652.535156,600.557434 624.383728,624.451050 593.089478,645.133911 
z"/>
<path fill="#000000" opacity="1.000000" stroke="none" 
	d="
M667.229553,285.776978 
	C679.945435,300.683441 694.720886,312.930328 708.914001,325.790863 
	C719.540649,335.419769 730.103088,345.179016 738.540466,356.847504 
	C762.967041,390.628448 766.329285,426.637054 747.185181,463.595093 
	C735.249268,486.637665 714.298645,497.480682 688.861206,500.415466 
	C667.324585,502.900208 647.192749,497.977356 627.495667,489.937714 
	C623.275757,488.215302 621.377136,485.875305 621.483154,480.997772 
	C621.819946,465.505096 621.557739,450.000214 621.701416,434.501678 
	C621.723083,432.160217 620.193298,428.772339 624.189209,427.901733 
	C627.949707,427.082428 630.313599,428.652435 632.092590,432.191101 
	C639.386902,446.700470 650.819092,456.853088 666.796753,459.899231 
	C690.931824,464.500610 710.304443,456.944946 716.361084,431.954956 
	C720.979431,412.899628 713.699829,396.691406 701.053101,382.479126 
	C684.945557,364.377502 666.190918,349.054352 648.762451,332.340729 
	C635.202454,319.337006 622.851501,305.558075 616.092346,287.513763 
	C604.198792,255.762589 610.444153,210.553696 644.704224,188.709259 
	C660.257874,178.792175 677.636047,175.609680 695.863708,176.424866 
	C713.533936,177.215103 729.759399,182.901337 745.323242,190.938538 
	C748.485962,192.571762 750.084778,194.612411 750.065369,198.305649 
	C749.976013,215.304199 750.120300,232.303940 750.037354,249.302551 
	C750.025452,251.718216 751.127747,255.060623 747.267090,255.857269 
	C743.622314,256.609375 742.073303,254.386215 740.660950,251.300339 
	C732.592529,233.670517 720.646179,219.940186 700.776550,215.932526 
	C687.871521,213.329620 675.178406,214.533752 664.328918,223.388000 
	C651.936218,233.501694 650.633667,252.696121 655.428589,265.748260 
	C658.089294,272.990845 662.076538,279.543396 667.229553,285.776978 
z"/>
</svg>